<mxfile host="app.diagrams.net" modified="2023-09-02T08:11:29.152Z" agent="Mozilla/5.0 (Macintosh; Intel Mac OS X 10_15_7) AppleWebKit/537.36 (KHTML, like Gecko) Chrome/116.0.0.0 Safari/537.36 Edg/116.0.1938.62" etag="vDHCRhUrVOdpAT0-P7iM" version="21.7.2" type="device">
  <diagram name="第 1 页" id="Y92qnDIvIZuUtzUQEBg2">
    <mxGraphModel dx="1060" dy="720" grid="1" gridSize="10" guides="1" tooltips="1" connect="1" arrows="1" fold="1" page="1" pageScale="1" pageWidth="827" pageHeight="1169" math="0" shadow="0">
      <root>
        <mxCell id="0" />
        <mxCell id="1" parent="0" />
        <mxCell id="-IaxeexCpY0zkMujg9jM-1" value="" style="edgeStyle=orthogonalEdgeStyle;rounded=0;orthogonalLoop=1;jettySize=auto;html=1;" parent="1" source="-IaxeexCpY0zkMujg9jM-2" target="-IaxeexCpY0zkMujg9jM-3" edge="1">
          <mxGeometry relative="1" as="geometry" />
        </mxCell>
        <mxCell id="-IaxeexCpY0zkMujg9jM-2" value="EnterNewTxn" style="rounded=0;whiteSpace=wrap;html=1;" parent="1" diagramCategory="general" diagramName="Rectangle" vertex="1">
          <mxGeometry x="310" y="330" width="110" height="40" as="geometry" />
        </mxCell>
        <mxCell id="-IaxeexCpY0zkMujg9jM-3" value="TxnContextProvider" style="rounded=0;whiteSpace=wrap;html=1;" parent="1" diagramCategory="general" diagramName="Rectangle" vertex="1">
          <mxGeometry x="310" y="420" width="110" height="40" as="geometry" />
        </mxCell>
        <mxCell id="-IaxeexCpY0zkMujg9jM-4" value="Isolation-level" style="text;html=1;strokeColor=none;fillColor=#D4E1F5;align=center;verticalAlign=middle;whiteSpace=wrap;rounded=0;" parent="1" diagramCategory="general" diagramName="text" vertex="1">
          <mxGeometry x="369" y="382" width="90" height="20" as="geometry" />
        </mxCell>
        <mxCell id="-IaxeexCpY0zkMujg9jM-5" style="edgeStyle=orthogonalEdgeStyle;rounded=0;orthogonalLoop=1;jettySize=auto;html=1;" parent="1" source="-IaxeexCpY0zkMujg9jM-6" target="-IaxeexCpY0zkMujg9jM-9" edge="1">
          <mxGeometry relative="1" as="geometry" />
        </mxCell>
        <mxCell id="-IaxeexCpY0zkMujg9jM-6" value="" style="rounded=0;whiteSpace=wrap;html=1;fillColor=none;" parent="1" diagramCategory="general" diagramName="Rectangle" vertex="1">
          <mxGeometry x="230" y="287" width="280" height="210" as="geometry" />
        </mxCell>
        <mxCell id="-IaxeexCpY0zkMujg9jM-7" value="PrepareTxn" style="text;html=1;strokeColor=none;fillColor=none;align=center;verticalAlign=middle;whiteSpace=wrap;rounded=0;" parent="1" diagramCategory="general" diagramName="text" vertex="1">
          <mxGeometry x="235" y="260" width="60" height="20" as="geometry" />
        </mxCell>
        <mxCell id="-IaxeexCpY0zkMujg9jM-8" style="edgeStyle=orthogonalEdgeStyle;rounded=0;orthogonalLoop=1;jettySize=auto;html=1;exitX=0.5;exitY=1;exitDx=0;exitDy=0;entryX=0.5;entryY=0;entryDx=0;entryDy=0;" parent="1" source="-IaxeexCpY0zkMujg9jM-9" target="-IaxeexCpY0zkMujg9jM-11" edge="1">
          <mxGeometry relative="1" as="geometry" />
        </mxCell>
        <mxCell id="-IaxeexCpY0zkMujg9jM-9" value="&lt;span style=&quot;font-size: 12px;&quot;&gt;onStmtStart&lt;/span&gt;" style="rounded=0;whiteSpace=wrap;html=1;" parent="1" diagramCategory="general" diagramName="Rectangle" vertex="1">
          <mxGeometry x="235" y="545" width="270" height="40" as="geometry" />
        </mxCell>
        <mxCell id="-IaxeexCpY0zkMujg9jM-10" style="edgeStyle=orthogonalEdgeStyle;rounded=0;orthogonalLoop=1;jettySize=auto;html=1;entryX=0.5;entryY=0;entryDx=0;entryDy=0;" parent="1" source="-IaxeexCpY0zkMujg9jM-11" target="-IaxeexCpY0zkMujg9jM-13" edge="1">
          <mxGeometry relative="1" as="geometry" />
        </mxCell>
        <mxCell id="-IaxeexCpY0zkMujg9jM-11" value="&lt;span style=&quot;font-size: 12px;&quot;&gt;Compile&lt;/span&gt;" style="rounded=0;whiteSpace=wrap;html=1;" parent="1" diagramCategory="general" diagramName="Rectangle" vertex="1">
          <mxGeometry x="235" y="630" width="270" height="40" as="geometry" />
        </mxCell>
        <mxCell id="-IaxeexCpY0zkMujg9jM-12" style="edgeStyle=orthogonalEdgeStyle;rounded=0;orthogonalLoop=1;jettySize=auto;html=1;exitX=0.5;exitY=1;exitDx=0;exitDy=0;entryX=0.5;entryY=0;entryDx=0;entryDy=0;" parent="1" source="-IaxeexCpY0zkMujg9jM-13" target="-IaxeexCpY0zkMujg9jM-15" edge="1">
          <mxGeometry relative="1" as="geometry" />
        </mxCell>
        <mxCell id="-IaxeexCpY0zkMujg9jM-13" value="&lt;span style=&quot;font-size: 12px;&quot;&gt;OptimizeWithPlanAndThenWarmUp&lt;/span&gt;" style="rounded=0;whiteSpace=wrap;html=1;" parent="1" diagramCategory="general" diagramName="Rectangle" vertex="1">
          <mxGeometry x="235" y="710" width="270" height="40" as="geometry" />
        </mxCell>
        <mxCell id="-IaxeexCpY0zkMujg9jM-14" style="edgeStyle=orthogonalEdgeStyle;rounded=0;orthogonalLoop=1;jettySize=auto;html=1;exitX=0.5;exitY=1;exitDx=0;exitDy=0;entryX=0.5;entryY=0;entryDx=0;entryDy=0;" parent="1" source="-IaxeexCpY0zkMujg9jM-15" target="-IaxeexCpY0zkMujg9jM-16" edge="1">
          <mxGeometry relative="1" as="geometry" />
        </mxCell>
        <mxCell id="-IaxeexCpY0zkMujg9jM-15" value="&lt;span style=&quot;font-size: 12px;&quot;&gt;runStmt&lt;/span&gt;" style="rounded=0;whiteSpace=wrap;html=1;" parent="1" diagramCategory="general" diagramName="Rectangle" vertex="1">
          <mxGeometry x="235" y="790" width="270" height="40" as="geometry" />
        </mxCell>
        <mxCell id="-IaxeexCpY0zkMujg9jM-16" value="&lt;span style=&quot;font-size: 12px;&quot;&gt;onStmtEnd&lt;/span&gt;" style="rounded=0;whiteSpace=wrap;html=1;" parent="1" diagramCategory="general" diagramName="Rectangle" vertex="1">
          <mxGeometry x="235" y="870" width="270" height="40" as="geometry" />
        </mxCell>
        <mxCell id="-IaxeexCpY0zkMujg9jM-17" value="" style="rounded=0;whiteSpace=wrap;html=1;fillColor=none;" parent="1" diagramCategory="general" diagramName="Rectangle" vertex="1">
          <mxGeometry x="180" y="250" width="380" height="690" as="geometry" />
        </mxCell>
        <mxCell id="-IaxeexCpY0zkMujg9jM-18" value="&lt;meta charset=&quot;utf-8&quot;&gt;&lt;meta&gt;&lt;span style=&quot;color: rgb(0, 0, 0); font-family: Helvetica; font-size: 12px; font-style: normal; font-variant-ligatures: no-common-ligatures; font-variant-caps: normal; font-weight: 400; letter-spacing: normal; orphans: 2; text-align: center; text-indent: 0px; text-transform: none; widows: 2; word-spacing: 0px; -webkit-text-stroke-width: 0px; background-color: rgb(248, 249, 250); text-decoration-thickness: initial; text-decoration-style: initial; text-decoration-color: initial; float: none; display: inline !important;&quot;&gt;ExecuteStmt&lt;/span&gt;" style="text;html=1;strokeColor=none;fillColor=none;align=center;verticalAlign=middle;whiteSpace=wrap;rounded=0;" parent="1" diagramCategory="general" diagramName="text" vertex="1">
          <mxGeometry x="172" y="220" width="80" height="20" as="geometry" />
        </mxCell>
        <mxCell id="ayyW_Xiv0l266Cs5Vqi5-1" value="" style="rounded=1;whiteSpace=wrap;html=1;fillColor=none;strokeColor=none;" vertex="1" parent="1">
          <mxGeometry x="30" y="180" width="770" height="840" as="geometry" />
        </mxCell>
      </root>
    </mxGraphModel>
  </diagram>
</mxfile>
